<?xml version="1.0" standalone="no"?>
<!DOCTYPE svg PUBLIC "-//W3C//DTD SVG 20010904//EN"
 "http://www.w3.org/TR/2001/REC-SVG-20010904/DTD/svg10.dtd">
<svg version="1.0" xmlns="http://www.w3.org/2000/svg"
 width="1065.000000pt" height="1280.000000pt" viewBox="0 0 1065.000000 1280.000000"
 preserveAspectRatio="xMidYMid meet">
<g transform="translate(0.000000,1280.000000) scale(0.100000,-0.100000)"
fill="#000000" stroke="none">
<path d="M8975 12767 c-20 -20 -39 -53 -48 -87 -9 -30 -26 -89 -37 -130 -12
-41 -43 -115 -70 -165 -26 -49 -60 -126 -75 -170 -31 -94 -123 -272 -202 -394
-106 -163 -236 -304 -428 -463 -174 -145 -239 -248 -334 -529 l-53 -155 -79
-70 c-85 -74 -246 -183 -409 -278 -123 -71 -143 -96 -137 -178 5 -92 63 -195
166 -299 67 -67 104 -94 162 -123 42 -20 82 -36 90 -36 8 0 29 -9 47 -20 37
-23 42 -52 16 -102 -24 -47 -33 -83 -44 -183 -9 -80 -18 -106 -81 -238 -90
-189 -119 -267 -119 -318 0 -60 -22 -95 -67 -106 -33 -8 -39 -14 -60 -67 -14
-36 -41 -78 -72 -111 -52 -55 -70 -88 -90 -170 -19 -77 -61 -133 -201 -269
-147 -141 -258 -220 -435 -306 -222 -109 -559 -229 -711 -256 -114 -20 -379
-88 -469 -120 -38 -14 -135 -43 -215 -65 -80 -21 -185 -52 -235 -68 -49 -17
-122 -35 -161 -41 -40 -5 -118 -25 -175 -43 -57 -19 -158 -44 -224 -57 -181
-34 -268 -56 -364 -94 -47 -19 -116 -42 -153 -50 -96 -22 -180 -64 -278 -137
-47 -35 -115 -81 -152 -103 -64 -37 -100 -65 -305 -236 -49 -41 -118 -96 -154
-121 -42 -30 -79 -67 -104 -105 -21 -32 -86 -108 -145 -169 -138 -144 -191
-220 -257 -368 -30 -67 -79 -163 -109 -213 -46 -78 -55 -101 -60 -155 -7 -83
-18 -134 -48 -213 -14 -35 -34 -100 -46 -143 -13 -46 -44 -115 -74 -168 -29
-49 -65 -112 -81 -139 -15 -27 -47 -67 -70 -90 -24 -22 -63 -72 -88 -109 -39
-57 -115 -155 -345 -445 -19 -24 -55 -56 -80 -72 -68 -42 -196 -175 -262 -271
-67 -97 -104 -133 -170 -162 -68 -30 -98 -54 -105 -86 -7 -35 -39 -65 -130
-123 -59 -38 -75 -53 -99 -103 -38 -75 -124 -167 -180 -194 -34 -15 -47 -29
-56 -55 -6 -19 -30 -63 -52 -98 -70 -107 -149 -269 -160 -327 -6 -31 -15 -61
-20 -67 -5 -7 -12 -36 -15 -65 -3 -30 -19 -81 -35 -114 -36 -76 -35 -115 2
-193 25 -53 36 -65 72 -81 24 -10 68 -38 98 -63 66 -54 103 -74 153 -83 33 -6
40 -4 66 24 48 52 100 38 131 -35 25 -58 75 -264 94 -389 44 -292 61 -382 93
-505 51 -192 60 -249 77 -485 8 -116 20 -224 26 -240 6 -17 28 -50 49 -75 20
-25 49 -65 63 -90 15 -25 48 -66 75 -92 l48 -47 141 34 c77 18 157 41 177 51
34 16 37 16 84 -4 86 -36 130 -37 198 -2 46 23 73 30 117 30 31 0 59 4 62 9
17 26 -98 111 -381 281 -59 36 -131 88 -159 115 -43 42 -53 60 -67 115 -18 72
-81 592 -98 806 l-11 135 26 53 c45 91 415 460 561 559 56 38 242 127 265 127
6 0 53 31 106 68 52 37 163 105 247 151 83 46 220 122 304 168 84 46 210 106
280 132 231 88 404 171 567 275 43 27 123 66 178 87 121 46 178 78 243 139 75
69 105 90 131 90 33 0 46 -32 47 -114 0 -131 -98 -361 -274 -643 -35 -57 -86
-142 -114 -190 -32 -56 -74 -111 -117 -153 -86 -83 -110 -136 -116 -251 -3
-68 -1 -93 13 -120 10 -19 109 -126 219 -239 263 -267 329 -360 347 -487 11
-77 42 -140 103 -212 64 -73 92 -125 109 -197 17 -77 59 -149 99 -174 36 -22
47 -24 273 -50 96 -11 196 -28 230 -40 67 -23 107 -19 129 12 13 19 22 20 76
15 55 -6 62 -5 81 17 23 26 49 39 117 56 23 6 42 16 42 23 0 25 -168 170 -240
207 -22 11 -90 29 -152 40 -148 25 -177 34 -227 71 -130 94 -371 408 -440 572
-17 42 -52 120 -77 174 -56 120 -62 169 -39 300 34 190 82 281 225 424 94 95
176 151 500 344 292 173 341 207 395 271 26 30 51 54 57 54 18 0 159 86 219
134 34 26 71 68 90 101 19 32 63 94 98 139 133 168 218 328 250 471 28 130 73
251 91 248 8 -1 27 -5 42 -9 23 -5 35 2 83 47 57 54 70 55 77 9 2 -16 14 -30
32 -39 37 -17 132 -19 148 -3 7 7 29 12 49 12 40 0 54 11 64 52 8 32 39 63 55
53 5 -3 17 -22 25 -41 16 -39 28 -42 48 -13 15 20 16 20 41 3 22 -14 40 -16
94 -10 37 3 79 9 93 12 20 4 34 -2 64 -30 34 -32 43 -36 93 -36 39 0 80 10
144 35 108 43 209 68 242 59 14 -3 32 -14 41 -24 14 -15 14 -22 5 -40 -7 -12
-10 -36 -7 -54 7 -49 63 -185 99 -240 17 -28 58 -100 89 -160 32 -60 69 -120
82 -135 34 -35 130 -230 156 -315 12 -38 30 -121 41 -185 28 -160 45 -208 80
-226 30 -16 150 -185 150 -212 0 -9 13 -40 30 -69 16 -29 33 -71 36 -94 4 -23
25 -69 47 -103 22 -34 46 -82 54 -107 7 -25 33 -70 56 -100 61 -79 106 -156
185 -317 63 -129 79 -171 111 -288 6 -22 35 -83 66 -135 77 -132 139 -256 159
-318 21 -62 57 -93 140 -123 148 -52 500 -85 811 -76 164 4 198 8 248 27 58
22 59 22 120 4 43 -12 97 -18 177 -18 125 -1 180 12 205 47 18 26 19 47 3 47
-7 0 -74 45 -148 101 -125 93 -177 123 -385 219 -56 27 -91 54 -176 139 -157
156 -189 231 -209 488 -12 151 -24 221 -50 304 -39 121 -63 308 -80 634 -15
281 -33 453 -85 817 -52 367 -71 681 -62 1013 13 448 67 596 303 830 132 130
186 205 205 281 6 27 27 76 45 109 24 45 40 97 63 208 19 98 38 162 55 191 16
28 28 66 32 111 5 50 13 74 32 97 22 26 26 44 33 136 11 134 42 300 75 394 29
87 43 245 44 508 0 96 5 268 11 381 11 195 10 211 -11 318 -18 94 -20 130 -15
220 7 98 5 111 -14 149 -14 27 -25 76 -32 144 -13 129 -44 273 -76 358 -22 59
-26 88 -34 295 -10 244 -12 260 -54 453 -26 124 -42 171 -109 333 -65 155 -66
254 -7 502 67 280 148 531 229 712 27 61 55 128 62 149 17 52 7 171 -18 230
-23 51 -75 90 -107 80 -36 -12 -98 -61 -218 -172 -64 -60 -130 -115 -147 -122
-86 -36 -113 21 -155 333 -19 143 -52 251 -102 336 -49 83 -164 206 -267 283
-83 62 -205 128 -239 128 -11 0 -34 -15 -52 -33z"/>
</g>
</svg>
