<?xml version="1.0" standalone="no"?>
<!DOCTYPE svg PUBLIC "-//W3C//DTD SVG 20010904//EN"
 "http://www.w3.org/TR/2001/REC-SVG-20010904/DTD/svg10.dtd">
<svg version="1.0" xmlns="http://www.w3.org/2000/svg"
 width="1280.000000pt" height="1101.000000pt" viewBox="0 0 1280.000000 1101.000000"
 preserveAspectRatio="xMidYMid meet">
<g transform="translate(0.000000,1101.000000) scale(0.100000,-0.100000)"
fill="#000000" stroke="none">
<path d="M12402 10888 c-13 -138 -34 -191 -101 -249 -46 -41 -305 -174 -320
-164 -8 4 -160 38 -222 49 -36 6 -37 8 -29 39 16 65 61 145 133 230 22 26 38
50 35 52 -7 7 -121 -14 -169 -30 -24 -9 -65 -29 -91 -46 -51 -33 -144 -128
-161 -166 -6 -13 -15 -23 -21 -23 -6 0 -83 18 -171 40 -275 70 -410 91 -606
97 -217 7 -301 -7 -437 -73 -73 -35 -114 -48 -195 -60 -128 -20 -280 -14 -401
15 -49 12 -90 20 -92 18 -6 -6 128 -95 166 -111 89 -37 192 -48 515 -56 237
-6 337 -13 384 -24 70 -18 118 -41 66 -32 -121 21 -185 26 -370 25 -115 0
-289 -4 -385 -8 -105 -5 -231 -4 -315 2 -214 15 -210 15 -210 -8 0 -14 10 -21
39 -27 21 -5 68 -22 103 -39 36 -17 77 -35 91 -39 15 -4 142 -42 282 -83 140
-42 265 -79 277 -84 13 -5 -46 -8 -145 -9 -178 0 -264 -11 -576 -70 -277 -53
-403 -67 -541 -61 -234 11 -353 71 -481 240 -24 32 -44 55 -44 50 0 -4 9 -48
20 -96 42 -190 127 -301 292 -380 251 -121 316 -139 588 -163 102 -9 214 -22
250 -28 61 -12 51 -13 -140 -13 -225 1 -288 -7 -529 -67 -201 -50 -272 -60
-416 -60 -196 0 -307 37 -553 182 -131 78 -267 148 -360 185 -60 25 -133 39
-272 52 l-65 7 80 -59 c44 -32 136 -97 205 -143 164 -111 238 -172 393 -317
139 -132 242 -208 356 -264 l75 -37 -50 -9 c-27 -4 -119 -8 -204 -7 -130 0
-188 6 -365 37 -411 70 -504 71 -968 12 -381 -49 -537 -58 -711 -45 -77 6
-145 14 -151 16 -22 11 74 -71 147 -127 193 -144 438 -266 625 -310 45 -11
141 -24 211 -29 206 -15 283 -51 378 -178 31 -42 69 -90 83 -106 l26 -29 -110
6 c-118 7 -204 25 -381 81 -141 44 -236 62 -405 77 -150 13 -355 6 -505 -16
-54 -8 -114 -15 -134 -15 -67 0 -213 -30 -319 -66 -141 -47 -292 -111 -560
-238 -123 -59 -225 -105 -225 -104 -1 2 -18 37 -39 78 -63 131 -136 197 -247
226 -70 18 -152 9 -253 -25 -183 -63 -478 -274 -737 -526 -91 -88 -190 -180
-220 -204 -106 -84 -251 -141 -362 -141 -212 -1 -418 155 -513 388 -46 113
-57 172 -64 329 l-6 153 -112 -153 c-223 -301 -271 -460 -178 -582 19 -25 31
-45 27 -45 -21 0 -201 173 -312 299 -69 79 -126 147 -128 152 -8 20 -22 7 -22
-21 0 -16 -11 -104 -25 -195 -34 -220 -40 -324 -26 -415 14 -91 46 -164 96
-219 l37 -41 -33 6 c-243 42 -436 176 -795 552 -161 168 -168 177 -220 285
-29 62 -53 105 -54 97 0 -9 7 -69 16 -134 55 -425 300 -966 555 -1230 44 -44
79 -82 79 -83 0 -1 -33 7 -72 18 -272 74 -742 412 -959 691 -35 44 -72 90 -82
102 -17 20 -17 9 -14 -279 3 -293 4 -302 31 -390 111 -366 391 -629 973 -913
l178 -87 -85 -8 c-47 -5 -186 -10 -310 -10 -294 -1 -368 13 -570 111 -50 25
-171 149 -198 205 -23 46 -35 54 -60 39 -27 -18 119 -327 244 -513 269 -403
649 -726 1039 -882 205 -82 379 -117 584 -118 108 0 143 4 243 30 374 97 702
301 1043 652 193 198 338 393 455 609 l51 95 -6 -59 c-4 -33 -16 -93 -27 -135
-12 -42 -21 -85 -21 -96 2 -111 -20 -346 -41 -429 -59 -229 -276 -567 -525
-817 -69 -69 -196 -180 -282 -247 -248 -193 -257 -202 -312 -331 -26 -61 -47
-115 -47 -119 0 -5 -16 -23 -35 -42 -70 -68 -87 -176 -73 -475 10 -207 10
-212 -15 -322 -14 -61 -40 -144 -57 -185 -42 -95 -135 -263 -171 -310 -16 -20
-56 -85 -88 -145 -78 -144 -240 -419 -272 -463 -60 -79 -109 -209 -109 -286 0
-31 7 -51 24 -71 20 -23 31 -27 70 -25 25 1 46 -1 46 -4 0 -16 -34 -82 -61
-115 -23 -30 -58 -52 -135 -89 -92 -45 -106 -49 -131 -38 -15 6 -69 11 -118
12 -83 1 -96 -2 -157 -32 -176 -86 -289 -304 -290 -557 -1 -186 51 -301 162
-358 44 -23 63 -27 95 -22 82 12 199 81 331 195 50 42 65 50 95 48 30 -1 46 6
88 41 72 60 127 141 212 314 48 95 81 149 93 153 11 4 86 72 167 153 104 102
150 155 155 176 3 17 19 57 35 90 16 34 37 94 48 135 10 41 31 96 45 122 47
82 86 217 141 495 30 150 61 295 69 324 18 59 180 379 327 643 95 171 104 184
148 207 76 40 179 152 289 315 126 187 199 262 323 332 132 74 199 127 399
313 299 279 342 310 605 431 211 98 263 127 395 222 58 42 139 93 179 114 69
34 81 37 155 36 56 -1 118 -12 201 -34 66 -17 122 -33 124 -36 13 -13 -185
-223 -248 -264 -62 -39 -141 -56 -193 -41 -50 15 -163 16 -236 1 -68 -15 -177
-68 -226 -110 -43 -38 -115 -204 -144 -335 -12 -49 -44 -254 -72 -455 -28
-201 -55 -381 -60 -400 -5 -19 -23 -113 -40 -207 -17 -96 -45 -216 -64 -270
-57 -166 -174 -472 -195 -511 -28 -53 -87 -199 -133 -331 -86 -245 -52 -394
95 -418 37 -6 37 -6 20 -26 -28 -31 -215 -169 -245 -181 -20 -7 -43 -7 -85 3
-86 20 -200 25 -246 11 -80 -24 -165 -128 -204 -249 -20 -65 -28 -241 -14
-330 24 -153 92 -302 160 -350 73 -52 144 -32 281 80 43 36 122 85 191 119 64
32 128 71 142 87 78 84 182 214 205 253 14 25 60 81 102 125 42 44 111 118
152 165 67 77 77 94 102 174 65 209 100 446 122 836 14 257 163 704 326 980
91 154 249 352 385 482 83 78 113 85 403 98 246 10 418 28 585 61 320 64 417
129 600 405 112 170 176 238 238 255 45 12 57 11 221 -20 117 -22 270 -27 352
-12 27 5 89 11 138 12 l89 3 17 -49 c10 -28 36 -88 60 -135 56 -112 124 -178
316 -307 189 -128 253 -186 322 -293 72 -112 118 -159 297 -300 83 -64 172
-141 199 -169 54 -59 52 -38 22 -206 -21 -116 -34 -330 -41 -660 -3 -159 -10
-327 -16 -372 -16 -135 -124 -550 -200 -766 -134 -385 -158 -530 -101 -637 37
-72 74 -90 197 -97 110 -7 129 -17 171 -89 36 -61 30 -109 -27 -210 -58 -104
-75 -148 -83 -216 l-7 -57 383 2 c356 1 390 0 483 -20 55 -11 102 -20 103 -18
2 2 -29 54 -69 117 -115 180 -137 218 -156 267 -24 65 -56 104 -227 281 -173
178 -202 224 -218 347 -5 43 -8 128 -5 188 4 96 11 131 56 278 92 304 161 611
161 722 0 28 23 108 66 227 36 100 76 218 88 261 l23 78 174 -217 c96 -119
190 -238 210 -265 38 -51 96 -195 125 -312 9 -37 30 -86 46 -108 43 -59 80
-72 194 -63 l93 7 11 -27 c18 -47 11 -87 -29 -175 -22 -47 -41 -95 -42 -106
-5 -34 12 -138 27 -166 36 -70 132 -121 284 -151 64 -12 604 -17 616 -6 3 3
-26 70 -64 149 -97 205 -159 298 -223 338 -15 9 -54 57 -87 106 -90 134 -211
280 -388 469 -285 305 -335 360 -420 466 -95 117 -179 239 -220 318 -18 35
-33 52 -46 52 -18 0 -105 122 -174 246 l-28 51 22 134 c44 271 80 388 206 672
30 67 84 199 121 292 36 94 80 195 96 225 17 30 33 70 35 89 6 48 61 161 131
271 87 137 117 201 153 328 33 118 41 212 21 251 -10 18 -6 35 24 103 52 121
59 179 51 431 -7 225 -31 404 -78 582 -28 107 -88 233 -130 273 l-34 32 46 48
c132 138 224 439 290 957 17 132 34 243 39 248 11 11 175 -51 247 -94 58 -34
148 -119 345 -324 117 -122 132 -151 144 -279 6 -75 20 -109 58 -144 33 -31
160 -82 206 -82 20 0 77 -7 126 -15 138 -23 229 -20 292 9 49 23 55 30 96 113
25 48 50 107 57 131 9 29 19 42 31 42 10 0 23 9 29 19 8 16 6 21 -10 26 -24 8
-24 6 25 140 18 50 37 102 40 118 4 15 11 27 16 27 13 0 11 57 -2 83 -6 12
-51 60 -99 107 -97 94 -86 70 -120 270 -6 36 -42 148 -80 250 -66 181 -67 186
-51 213 15 27 15 29 -3 43 -14 10 -22 11 -27 3 -10 -17 -16 -1 -40 97 -26 108
-26 121 1 206 16 53 24 65 38 61 24 -6 62 10 100 42 31 26 32 28 16 46 -16 18
-18 18 -51 -11 -48 -42 -85 -40 -46 2 13 15 17 34 15 80 -2 57 -6 65 -45 108
-64 69 -107 119 -107 122 0 2 28 3 63 4 106 1 177 38 228 121 68 110 26 289
-92 397 l-58 52 29 57 c54 107 51 209 -13 502 l-33 150 -12 -117z m-1909 -225
c-7 -2 -21 -2 -30 0 -10 3 -4 5 12 5 17 0 24 -2 18 -5z m-56 -9 c-3 -3 -12 -4
-19 -1 -8 3 -5 6 6 6 11 1 17 -2 13 -5z m-10258 -4014 c25 -62 70 -143 114
-209 17 -24 25 -41 18 -37 -42 26 -148 226 -181 341 -28 97 -24 127 4 35 13
-41 33 -100 45 -130z m9194 -1839 c21 -8 31 -25 53 -93 24 -71 28 -101 29
-213 2 -129 2 -130 44 -224 23 -51 40 -95 38 -97 -5 -5 -131 146 -190 228 -85
119 -102 165 -102 283 0 131 3 139 58 132 24 -3 55 -11 70 -16z m397 -2872
c-27 -122 -111 -431 -121 -443 -12 -14 47 251 87 384 20 69 39 133 41 143 3
10 7 16 10 14 2 -2 -6 -47 -17 -98z"/>
</g>
</svg>
