<?xml version="1.0" standalone="no"?>
<!DOCTYPE svg PUBLIC "-//W3C//DTD SVG 20010904//EN"
 "http://www.w3.org/TR/2001/REC-SVG-20010904/DTD/svg10.dtd">
<svg version="1.0" xmlns="http://www.w3.org/2000/svg"
 width="1280.000000pt" height="640.000000pt" viewBox="0 0 1280.000000 640.000000"
 preserveAspectRatio="xMidYMid meet">
<g transform="translate(0.000000,640.000000) scale(0.100000,-0.100000)"
fill="#000000" stroke="none">
<path d="M7160 6010 c-63 -5 -180 -13 -260 -19 -80 -5 -170 -15 -200 -21 -30
-6 -93 -15 -140 -21 -171 -20 -361 -55 -430 -78 -30 -11 -102 -33 -160 -51
-58 -17 -117 -35 -131 -40 -55 -17 -109 -62 -220 -183 -68 -76 -118 -122 -123
-117 -13 13 -34 -1 -131 -83 -46 -40 -94 -79 -107 -88 -14 -10 -22 -25 -21
-40 1 -13 -12 -48 -29 -79 l-31 -55 32 35 c33 36 32 26 -1 -23 -11 -15 -24
-25 -29 -22 -5 4 -9 1 -9 -6 0 -24 -51 -115 -88 -157 -36 -42 -39 -43 -122
-53 -47 -5 -97 -12 -112 -15 -37 -8 -35 2 10 67 21 30 55 78 76 108 l38 53
-34 -25 c-18 -15 -69 -60 -113 -102 -44 -41 -88 -78 -98 -81 -13 -4 -17 -14
-15 -34 1 -15 -4 -35 -11 -44 -16 -19 -88 -41 -182 -56 -36 -5 -97 -24 -135
-42 -38 -17 -94 -38 -124 -45 -30 -8 -71 -18 -90 -23 -19 -5 -52 -10 -74 -10
-33 0 -37 3 -31 18 47 107 55 176 30 258 -28 94 -77 118 -137 66 -18 -16 -44
-32 -58 -35 -38 -9 -146 -82 -165 -111 -24 -36 -13 -66 35 -105 30 -24 40 -39
40 -60 0 -55 -4 -55 -384 -62 -442 -9 -749 -25 -941 -51 -82 -11 -186 -24
-230 -29 -279 -32 -663 -115 -865 -188 -30 -11 -62 -20 -71 -21 -24 0 -211
-72 -309 -118 -47 -22 -105 -50 -130 -61 -73 -33 -157 -86 -397 -251 -71 -49
-164 -149 -186 -199 -6 -14 -23 -41 -37 -60 -31 -41 -93 -150 -120 -211 -40
-87 -53 -110 -66 -110 -7 0 -24 -14 -38 -31 -28 -33 -34 -78 -15 -126 8 -21 7
-59 -6 -158 -16 -121 -17 -137 -1 -235 21 -137 58 -211 151 -306 72 -73 161
-129 250 -157 28 -9 115 -26 195 -37 210 -30 196 -25 221 -78 57 -120 184
-283 271 -349 99 -75 248 -144 326 -151 38 -3 52 -8 48 -17 -10 -28 146 -63
354 -80 107 -9 222 -20 255 -25 95 -15 222 -28 490 -50 138 -11 302 -25 365
-31 202 -18 665 -39 1005 -44 182 -3 366 -8 410 -10 259 -14 604 -16 1000 -6
248 6 617 16 820 21 780 21 1320 31 1855 35 620 4 773 10 808 33 14 9 56 17
105 20 45 3 84 8 87 13 3 4 25 3 49 -2 27 -6 47 -6 50 -1 7 11 161 21 161 11
0 -4 35 -7 78 -7 42 0 88 -1 102 -2 44 -2 621 -3 713 -1 51 2 99 8 114 16 15
8 38 12 50 9 33 -9 76 4 70 20 -4 9 2 12 19 8 14 -2 24 0 24 7 0 7 10 5 26 -5
21 -14 27 -15 34 -4 8 14 17 15 130 25 84 7 107 6 187 -11 17 -3 39 -2 49 4
12 7 33 5 68 -6 28 -8 65 -14 81 -13 17 1 40 -4 52 -10 26 -14 55 -5 47 14 -5
15 52 30 111 28 16 0 33 5 38 12 7 9 10 9 14 0 6 -15 49 -17 58 -3 4 6 10 8
15 5 5 -3 25 1 44 9 37 15 103 25 201 30 33 2 61 8 63 15 2 6 11 11 19 11 13
0 13 3 3 15 -7 8 -21 15 -31 15 -11 0 -19 4 -19 10 0 5 -21 20 -47 32 -44 21
-62 23 -206 23 -86 0 -157 3 -157 6 0 3 20 20 44 37 55 39 136 123 136 140 0
6 4 12 10 12 16 0 90 118 136 215 48 103 88 235 100 325 11 88 28 176 35 184
5 5 14 4 23 -3 22 -19 44 -9 232 110 l171 108 239 7 c279 8 274 6 274 95 0 73
-9 79 -122 80 l-83 0 29 22 c16 12 51 38 78 59 101 74 178 188 217 318 21 70
44 294 37 365 -8 91 -41 247 -61 284 -47 92 -84 133 -181 199 -27 18 -65 44
-84 57 -19 13 -57 36 -85 51 -51 27 -115 81 -115 97 0 5 -12 24 -27 42 -16 18
-38 50 -51 71 -62 104 -166 181 -267 199 -22 4 -53 13 -70 20 -16 7 -106 45
-200 85 -93 40 -199 87 -235 105 -36 18 -90 37 -122 43 -31 6 -85 25 -120 42
-34 17 -100 47 -146 66 -45 19 -101 43 -125 54 -23 11 -62 26 -86 35 -51 18
-356 143 -451 186 -36 16 -96 41 -135 55 -191 71 -224 83 -273 103 -29 11 -60
21 -68 21 -8 0 -41 18 -73 39 -64 44 -155 71 -366 111 -66 12 -128 26 -137 31
-9 5 -72 18 -140 29 -68 11 -137 25 -155 30 -17 6 -80 15 -140 20 -59 5 -175
16 -258 25 -173 18 -1267 29 -1465 15z m-1822 -680 c-22 -39 -94 -117 -87 -93
5 15 97 133 104 133 3 0 -5 -18 -17 -40z m4721 -3122 c37 -75 54 -102 109
-177 9 -13 41 -48 70 -78 30 -30 52 -56 50 -58 -2 -3 -91 2 -198 11 -107 8
-256 19 -330 24 -74 5 -200 15 -280 21 -80 6 -239 14 -355 18 -130 5 -219 12
-232 19 -15 9 -142 15 -395 22 -205 5 -411 12 -457 16 l-83 6 43 25 c24 14 52
33 62 41 28 25 189 41 516 52 300 10 444 26 499 54 73 37 474 78 823 84 l116
2 42 -82z m-7019 -58 c0 -10 8 -24 18 -29 9 -5 103 -14 207 -20 105 -7 226
-16 270 -21 44 -6 125 -10 181 -10 56 0 115 -3 131 -6 30 -6 30 -7 89 -144 10
-24 36 -67 57 -95 20 -27 37 -55 37 -62 0 -9 -46 -12 -192 -12 -106 -1 -203
-1 -216 -1 -13 0 -21 -3 -19 -8 3 -4 -56 -8 -131 -8 -76 -1 -234 -5 -352 -9
-332 -10 -638 -11 -825 -1 l-170 8 65 32 c131 63 234 154 340 300 43 59 60 75
80 76 15 0 30 4 36 10 5 5 84 11 174 13 91 1 177 4 193 5 21 2 27 -2 27 -18z
m4093 -71 c33 -21 78 -43 100 -49 83 -21 86 -27 17 -34 -81 -9 -161 -26 -176
-38 -17 -13 -87 -13 -92 0 -2 7 -11 12 -20 12 -13 0 -14 -2 -3 -9 16 -11 2
-21 -30 -21 -71 -2 -155 -13 -161 -23 -3 -6 -60 -16 -125 -24 -377 -41 -418
-44 -421 -34 -5 14 -35 14 -49 0 -9 -9 -26 -9 -69 0 -88 17 -311 10 -298 -10
3 -5 -6 -9 -20 -9 -14 0 -28 -4 -31 -10 -9 -15 -85 -13 -85 3 0 7 4 17 9 23
16 15 111 205 111 220 0 21 49 18 126 -8 54 -17 70 -19 85 -9 16 9 24 9 42 -4
38 -27 130 -14 171 24 19 18 46 20 336 28 173 5 362 9 420 10 l105 1 58 -39z"/>
<path d="M4727 638 c-15 -46 -41 -118 -57 -160 l-29 -78 35 0 c30 0 37 4 45
30 11 29 13 30 74 30 61 0 63 -1 74 -30 8 -26 15 -30 45 -30 l35 0 -41 113
c-22 61 -48 133 -56 160 -15 46 -17 47 -57 47 l-41 0 -27 -82z m82 -20 c5 -18
14 -48 20 -65 l10 -33 -44 0 -43 0 21 65 c12 36 22 65 24 65 1 0 6 -15 12 -32z"/>
<path d="M4980 560 l0 -160 35 0 35 0 0 160 0 160 -35 0 -35 0 0 -160z"/>
<path d="M5138 709 c-10 -5 -20 -25 -24 -44 -3 -19 -11 -33 -17 -32 -6 1 -13
-8 -15 -20 -2 -16 2 -23 12 -23 13 0 16 -15 16 -95 l0 -95 35 0 35 0 0 95 c0
89 1 95 21 95 15 0 20 5 17 23 -2 15 -9 21 -20 19 -12 -2 -18 4 -18 18 0 13 7
20 20 20 15 0 20 7 20 25 0 22 -4 25 -32 25 -18 0 -41 -5 -50 -11z"/>
<path d="M5640 560 l0 -160 30 0 30 0 0 60 0 61 58 -3 c53 -3 57 -5 60 -28 9
-87 11 -90 49 -90 28 0 34 3 29 16 -3 9 -6 35 -6 59 0 26 -6 50 -16 59 -14 15
-14 18 5 42 35 44 22 111 -26 133 -13 6 -66 11 -118 11 l-95 0 0 -160z m188
72 c6 -38 -15 -52 -74 -52 l-54 0 0 40 0 41 63 -3 c56 -3 62 -5 65 -26z"/>
<path d="M7260 690 c0 -29 1 -30 50 -30 l50 0 0 -130 0 -130 30 0 30 0 0 130
0 130 50 0 c49 0 50 1 50 30 l0 30 -130 0 -130 0 0 -30z"/>
<path d="M7540 690 l0 -30 80 0 c44 0 80 -3 80 -6 0 -3 -38 -50 -85 -105 -57
-67 -85 -108 -85 -124 l0 -25 130 0 130 0 0 25 c0 25 -1 25 -85 25 -47 0 -85
3 -85 6 0 3 38 51 85 107 63 74 85 108 85 129 l0 28 -125 0 -125 0 0 -30z"/>
<path d="M7991 697 c-26 -16 -50 -53 -51 -79 0 -13 8 -18 29 -18 22 0 30 6 35
25 7 29 49 44 71 25 8 -7 15 -25 15 -41 0 -23 -11 -36 -52 -67 -67 -50 -86
-72 -98 -111 l-9 -31 115 0 c114 0 115 0 112 23 -3 20 -10 22 -73 27 l-70 5
55 41 c75 56 85 70 85 120 0 59 -27 85 -92 91 -29 2 -57 -2 -72 -10z"/>
<path d="M5272 620 c-33 -31 -29 -60 7 -60 16 0 31 6 35 15 3 9 18 15 36 15
23 0 30 -4 30 -19 0 -15 -11 -22 -52 -31 -29 -6 -60 -18 -70 -27 -24 -22 -24
-85 0 -106 23 -21 81 -22 110 -1 12 8 22 10 22 5 0 -6 15 -11 33 -11 l32 0 -5
101 c-5 91 -7 103 -29 120 -33 27 -119 26 -149 -1z m118 -123 c0 -25 -31 -57
-56 -57 -47 0 -40 54 9 63 40 8 47 7 47 -6z"/>
<path d="M5987 619 c-56 -43 -60 -148 -7 -201 23 -23 37 -28 75 -28 86 0 125
39 125 125 0 85 -39 125 -123 125 -30 0 -53 -7 -70 -21z m117 -51 c22 -31 20
-84 -4 -108 -41 -41 -90 -12 -90 53 0 69 60 104 94 55z"/>
<path d="M6253 632 c-22 -3 -23 -7 -23 -118 l0 -114 30 0 30 0 0 79 c0 59 4
84 16 95 8 9 19 16 24 16 5 0 16 -7 24 -16 12 -11 16 -36 16 -95 l0 -79 30 0
30 0 0 85 c0 73 3 86 19 95 25 13 27 13 45 -6 12 -11 16 -36 16 -95 l0 -79 30
0 30 0 0 94 c0 79 -3 97 -21 120 -23 30 -71 35 -105 12 -17 -12 -22 -12 -39 0
-23 17 -77 18 -93 2 -7 -7 -16 -8 -24 -2 -7 6 -23 8 -35 6z"/>
<path d="M6657 619 c-56 -43 -60 -148 -7 -201 39 -39 105 -40 149 -2 17 14 31
32 31 40 0 19 -54 18 -70 -1 -16 -19 -44 -19 -64 1 -35 34 -21 44 65 44 l82 0
-6 43 c-8 59 -51 97 -111 97 -29 0 -52 -7 -69 -21z m101 -41 c25 -25 13 -38
-33 -38 -30 0 -45 4 -45 13 0 19 21 37 45 37 12 0 26 -5 33 -12z"/>
<path d="M6909 612 c-24 -21 -32 -38 -36 -75 -11 -91 35 -147 119 -147 43 0
54 4 84 34 31 31 34 40 34 91 0 51 -3 60 -34 91 -30 30 -40 34 -85 34 -41 0
-56 -5 -82 -28z m111 -32 c25 -13 35 -64 20 -100 -34 -83 -132 -18 -100 66 17
43 42 54 80 34z"/>
</g>
</svg>
