<?xml version="1.0" standalone="no"?>
<!DOCTYPE svg PUBLIC "-//W3C//DTD SVG 20010904//EN"
 "http://www.w3.org/TR/2001/REC-SVG-20010904/DTD/svg10.dtd">
<svg version="1.0" xmlns="http://www.w3.org/2000/svg"
 width="1280.000000pt" height="640.000000pt" viewBox="0 0 1280.000000 640.000000"
 preserveAspectRatio="xMidYMid meet">
<g transform="translate(0.000000,640.000000) scale(0.100000,-0.100000)"
fill="#000000" stroke="none">
<path d="M4970 6009 c-619 -24 -979 -60 -1343 -133 -904 -183 -1398 -525
-2032 -1406 -96 -134 -97 -135 -138 -136 -29 -2 -46 -8 -59 -24 -20 -25 -23
-46 -8 -55 20 -13 8 -38 -81 -161 -180 -250 -360 -536 -561 -894 -145 -259
-318 -583 -318 -598 0 -6 9 -14 20 -17 11 -3 20 -13 20 -20 0 -12 -27 -15
-133 -17 l-132 -3 -3 -162 -2 -162 -38 -28 c-57 -42 -112 -95 -127 -124 -10
-19 -12 -40 -6 -77 6 -38 3 -70 -12 -129 -17 -67 -18 -86 -8 -139 6 -34 11
-73 11 -87 0 -15 8 -30 18 -35 25 -13 301 -56 309 -49 3 4 10 57 15 119 5 62
13 117 17 121 5 5 89 0 193 -12 249 -28 543 -57 783 -76 110 -9 204 -20 208
-24 4 -5 3 -39 -4 -76 -17 -101 -7 -320 20 -425 78 -299 295 -560 578 -692
409 -192 909 -93 1214 240 182 199 265 410 277 702 l7 155 125 2 c69 1 148 4
177 5 43 3 56 -1 78 -22 l27 -25 239 -3 c225 -3 239 -4 239 -22 0 -23 36 -26
520 -40 195 -6 533 -17 750 -24 217 -8 398 -12 403 -9 4 2 7 12 7 23 0 20 19
30 55 30 36 0 55 -10 55 -30 0 -11 5 -22 10 -25 6 -4 356 -3 779 1 l768 7 9
31 c8 27 14 31 47 34 39 3 40 2 51 -51 5 -22 12 -27 35 -27 63 0 89 -11 100
-42 l11 -30 77 6 c43 4 128 11 188 16 61 6 210 19 333 30 122 10 227 22 232
25 6 3 10 17 10 29 0 34 17 43 98 51 85 8 86 8 43 -86 -46 -103 -111 -298
-111 -333 0 -36 18 -96 28 -96 4 0 87 -9 184 -21 97 -12 193 -19 212 -15 21 4
53 24 81 49 42 39 55 62 150 292 58 137 110 254 117 261 7 7 48 14 93 16 l80
3 7 -130 c4 -88 15 -162 32 -229 74 -287 279 -541 544 -675 314 -158 701 -147
1003 30 358 208 553 591 515 1011 -5 57 -9 119 -10 138 l-1 35 150 13 c231 19
238 21 251 62 14 43 24 46 54 15 23 -24 23 -25 10 -115 -7 -50 -11 -92 -9 -94
2 -1 37 0 77 4 57 6 78 12 98 31 24 22 26 28 20 88 -5 43 -3 68 6 78 6 8 15
36 19 61 4 26 18 97 32 157 51 227 54 265 31 430 -8 59 -53 120 -88 120 -27 0
-32 -8 -115 -189 -47 -104 -91 -191 -98 -193 -7 -3 -14 16 -17 54 -8 76 -18
106 -81 243 -52 114 -53 116 -74 305 -13 105 -27 203 -33 218 -17 44 -2 51 78
38 66 -12 67 -12 96 16 92 88 83 406 -15 467 -12 8 -64 17 -114 21 -80 6 -93
4 -93 -9 0 -10 -16 -19 -42 -26 -74 -19 -82 -22 -131 -47 l-47 -24 -110 105
c-317 302 -764 489 -1380 575 -368 51 -618 64 -1243 64 l-547 0 -449 591
c-247 325 -458 600 -470 610 -30 27 -27 39 25 75 44 32 45 34 27 53 -27 30
-51 40 -259 112 -511 176 -835 240 -1499 295 -479 41 -708 47 -1135 30z m841
-539 c48 -25 76 -67 83 -129 3 -25 11 -309 17 -631 11 -525 10 -589 -4 -622
-31 -74 -8 -71 -591 -79 -286 -4 -744 -10 -1016 -14 l-495 -7 -47 41 c-77 69
-85 135 -32 284 42 116 146 324 215 427 86 130 272 315 405 403 321 213 801
340 1302 346 106 1 128 -2 163 -19z m906 5 c436 -58 799 -217 1123 -493 159
-135 290 -302 390 -493 39 -76 42 -86 37 -139 -5 -64 11 -112 56 -166 l27 -32
-23 -33 c-12 -18 -42 -47 -65 -64 l-44 -30 -366 -3 c-202 -2 -377 0 -389 3
-20 5 -14 14 65 93 158 156 262 304 262 371 0 142 -259 16 -546 -266 -61 -60
-124 -128 -139 -151 -15 -23 -37 -45 -49 -48 -12 -3 -174 -4 -361 -2 -391 3
-388 3 -434 93 l-26 50 -3 318 c-2 199 1 323 7 331 6 7 6 17 1 26 -6 8 -10
131 -10 273 0 284 3 303 59 350 32 27 35 27 171 27 77 0 192 -7 257 -15z
m-3129 -85 c106 -48 162 -126 162 -228 0 -50 -4 -59 -60 -133 -110 -146 -182
-287 -264 -514 -26 -71 -49 -132 -52 -134 -2 -2 -50 41 -107 95 -130 125 -190
158 -300 163 -119 5 -222 -30 -373 -127 -116 -74 -224 -194 -224 -246 0 -12
20 -84 44 -161 25 -76 43 -142 41 -145 -7 -12 -252 -19 -288 -9 -48 13 -97 48
-124 88 -18 27 -23 48 -23 100 1 368 396 821 955 1096 161 79 249 113 390 150
110 29 167 31 223 5z m4142 -918 c0 -54 -148 -230 -298 -354 -108 -91 -123
-98 -195 -98 -88 0 -88 7 6 116 92 107 152 163 274 250 124 90 213 126 213 86z
m-7362 -2278 c3 -22 -68 -187 -85 -197 -13 -8 -93 49 -93 65 0 20 143 159 160
156 8 -2 16 -13 18 -24z m42 -270 c0 -23 -30 -28 -48 -10 -14 14 -15 18 -3 25
18 12 51 2 51 -15z"/>
<path d="M7560 4821 c0 -10 382 -21 393 -11 4 4 -61 10 -144 13 -201 9 -249 9
-249 -2z"/>
</g>
</svg>
