<?xml version="1.0" standalone="no"?>
<!DOCTYPE svg PUBLIC "-//W3C//DTD SVG 20010904//EN"
 "http://www.w3.org/TR/2001/REC-SVG-20010904/DTD/svg10.dtd">
<svg version="1.0" xmlns="http://www.w3.org/2000/svg"
 width="1280.000000pt" height="1280.000000pt" viewBox="0 0 1280.000000 1280.000000"
 preserveAspectRatio="xMidYMid meet">
<g transform="translate(0.000000,1280.000000) scale(0.100000,-0.100000)"
fill="#000000" stroke="none">
<path d="M7491 12590 c-331 -70 -662 -362 -922 -815 -462 -806 -692 -2061
-649 -3555 5 -195 13 -383 16 -417 4 -44 3 -63 -5 -63 -6 0 -11 10 -11 23 0
87 -131 808 -205 1134 -400 1742 -1159 2983 -1990 3253 -85 28 -119 33 -225
37 -93 4 -142 1 -192 -11 -177 -41 -334 -170 -421 -346 -291 -588 -11 -1595
736 -2640 349 -489 777 -972 1267 -1434 118 -111 243 -227 277 -257 60 -53 73
-69 54 -69 -5 0 -94 61 -198 136 -1311 949 -2537 1488 -3509 1543 -631 35
-1099 -141 -1267 -477 -147 -294 -46 -636 282 -962 173 -172 387 -316 676
-456 358 -173 750 -299 1225 -393 349 -69 605 -101 1140 -143 173 -13 1149
-17 1268 -4 59 6 72 5 72 -7 0 -10 -30 -19 -112 -31 -194 -30 -593 -104 -807
-151 -1542 -339 -2699 -939 -3186 -1655 -71 -104 -157 -280 -185 -380 -31
-107 -38 -275 -16 -374 86 -383 501 -592 1067 -536 703 69 1582 513 2449 1235
287 239 416 359 778 722 199 200 359 353 367 351 10 -2 -24 -58 -106 -173
-769 -1083 -1229 -2030 -1409 -2900 -81 -388 -91 -794 -29 -1082 86 -398 291
-657 579 -729 136 -34 328 -6 483 72 212 107 428 315 613 594 340 510 578
1280 683 2205 46 403 55 593 56 1177 0 424 3 559 12 562 15 6 18 -4 42 -154
291 -1817 945 -3243 1753 -3822 346 -249 699 -310 958 -166 340 189 463 678
325 1292 -210 936 -964 2045 -2133 3139 -125 117 -189 184 -183 190 6 6 71
-34 183 -114 1166 -835 2246 -1336 3173 -1473 543 -80 1013 -11 1313 192 128
87 241 241 277 378 23 83 21 230 -4 325 -46 177 -144 333 -321 509 -182 182
-376 316 -655 454 -867 428 -2163 622 -3672 549 -92 -4 -133 -3 -133 5 0 6 26
14 58 17 31 4 174 27 317 51 1455 244 2584 673 3313 1258 552 442 809 955 672
1342 -51 147 -179 284 -334 359 -513 250 -1350 72 -2256 -478 -684 -416 -1414
-1047 -2150 -1860 -73 -81 -56 -44 37 80 934 1239 1508 2451 1629 3436 22 181
23 496 1 647 -65 447 -256 736 -554 841 -66 24 -240 34 -312 19z"/>
</g>
</svg>
