<?xml version="1.0" standalone="no"?>
<!DOCTYPE svg PUBLIC "-//W3C//DTD SVG 20010904//EN"
 "http://www.w3.org/TR/2001/REC-SVG-20010904/DTD/svg10.dtd">
<svg version="1.0" xmlns="http://www.w3.org/2000/svg"
 width="640.000000pt" height="1280.000000pt" viewBox="0 0 640.000000 1280.000000"
 preserveAspectRatio="xMidYMid meet">
<g transform="translate(0.000000,1280.000000) scale(0.100000,-0.100000)"
fill="#000000" stroke="none">
<path d="M4695 12779 c-422 -53 -841 -149 -1235 -284 -258 -89 -567 -226 -554
-246 4 -8 3 -9 -5 -5 -6 4 -42 -9 -79 -30 -77 -43 -242 -152 -242 -160 0 -3 6
-2 13 2 8 5 8 2 -2 -9 -15 -18 -26 -23 -16 -7 3 6 2 10 -3 10 -19 0 -213 -193
-257 -255 -56 -78 -110 -191 -131 -275 -24 -96 -15 -285 20 -405 46 -157 154
-357 247 -460 20 -22 62 -76 93 -120 87 -122 198 -238 306 -320 54 -41 101
-79 105 -85 4 -6 11 -8 16 -4 5 3 8 1 7 -4 -5 -17 101 -90 197 -138 224 -109
459 -139 668 -84 102 27 251 95 241 111 -5 8 -3 9 5 4 17 -10 155 85 258 178
193 174 378 412 545 697 78 135 100 179 92 192 -5 7 -3 8 6 3 10 -6 12 -4 7 9
-4 10 -3 15 3 11 12 -8 63 93 56 112 -3 8 -2 12 3 9 15 -9 129 255 218 504 98
275 158 588 125 646 -10 16 -11 13 -7 -16 l5 -35 -11 38 c-11 36 -12 37 -59
37 -38 0 -50 -4 -53 -17 -3 -10 -5 16 -6 58 -1 88 -15 135 -43 150 -11 6 -72
12 -135 15 -64 2 -118 6 -121 9 -3 3 9 5 26 5 26 0 33 5 38 26 7 27 -1 123
-11 133 -10 10 -253 10 -330 0z m148 -6 c-13 -2 -35 -2 -50 0 -16 2 -5 4 22 4
28 0 40 -2 28 -4z m150 0 c-7 -2 -21 -2 -30 0 -10 3 -4 5 12 5 17 0 24 -2 18
-5z m-250 -10 c-13 -2 -33 -2 -45 0 -13 2 -3 4 22 4 25 0 35 -2 23 -4z m-138
-14 c-51 -10 -92 -10 -50 1 17 4 44 8 60 8 25 0 24 -2 -10 -9z m-112 -16 c-7
-2 -19 -2 -25 0 -7 3 -2 5 12 5 14 0 19 -2 13 -5z m-50 -10 c-7 -2 -21 -2 -30
0 -10 3 -4 5 12 5 17 0 24 -2 18 -5z m584 -55 c-2 -13 -4 -3 -4 22 0 25 2 35
4 23 2 -13 2 -33 0 -45z m-654 45 c-7 -2 -19 -2 -25 0 -7 3 -2 5 12 5 14 0 19
-2 13 -5z m-50 -10 c-7 -2 -19 -2 -25 0 -7 3 -2 5 12 5 14 0 19 -2 13 -5z
m-68 -13 c-11 -5 -29 -8 -40 -8 -16 0 -15 2 5 8 34 11 60 11 35 0z m-100 -20
c-11 -5 -29 -8 -40 -8 -16 0 -15 2 5 8 34 11 60 11 35 0z m-90 -20 c-11 -5
-27 -9 -35 -9 -9 0 -8 4 5 9 11 5 27 9 35 9 9 0 8 -4 -5 -9z m-80 -20 c-11 -5
-27 -9 -35 -9 -9 0 -8 4 5 9 11 5 27 9 35 9 9 0 8 -4 -5 -9z m-80 -20 c-11 -5
-27 -9 -35 -9 -9 0 -8 4 5 9 11 5 27 9 35 9 9 0 8 -4 -5 -9z m1005 -10 c-30
-5 -71 -8 -90 -8 -31 1 -30 2 10 8 25 4 65 7 90 7 44 0 44 0 -10 -7z m-1080
-10 c-8 -5 -22 -9 -30 -9 -10 0 -8 3 5 9 27 12 43 12 25 0z m915 -11 c-22 -4
-51 -8 -65 -7 -35 1 34 15 75 16 25 0 23 -2 -10 -9z m-985 -9 c-8 -5 -22 -9
-30 -9 -10 0 -8 3 5 9 27 12 43 12 25 0z m883 -7 c-7 -2 -21 -2 -30 0 -10 3
-4 5 12 5 17 0 24 -2 18 -5z m-953 -13 c-8 -5 -22 -9 -30 -9 -10 0 -8 3 5 9
27 12 43 12 25 0z m893 3 c-7 -2 -21 -2 -30 0 -10 3 -4 5 12 5 17 0 24 -2 18
-5z m-73 -13 c-14 -4 -36 -8 -50 -8 -22 0 -22 1 5 8 17 4 39 8 50 8 16 0 15
-2 -5 -8z m-890 -10 c-8 -5 -22 -9 -30 -9 -10 0 -8 3 5 9 27 12 43 12 25 0z
m765 -15 c-27 -7 -59 -13 -70 -13 -11 0 3 6 30 13 28 7 59 13 70 13 11 0 -2
-6 -30 -13z m-825 -5 c-8 -5 -22 -9 -30 -9 -10 0 -8 3 5 9 27 12 43 12 25 0z
m-60 -20 c-8 -5 -22 -9 -30 -9 -10 0 -8 3 5 9 27 12 43 12 25 0z m665 -26
c-71 -18 -134 -32 -140 -30 -12 3 223 64 250 64 11 0 -38 -15 -110 -34z m-725
6 c-8 -5 -19 -10 -25 -10 -5 0 -3 5 5 10 8 5 20 10 25 10 6 0 3 -5 -5 -10z
m-60 -20 c-8 -5 -19 -10 -25 -10 -5 0 -3 5 5 10 8 5 20 10 25 10 6 0 3 -5 -5
-10z m-50 -20 c-8 -5 -19 -10 -25 -10 -5 0 -3 5 5 10 8 5 20 10 25 10 6 0 3
-5 -5 -10z m665 -10 c-11 -5 -27 -9 -35 -9 -9 0 -8 4 5 9 11 5 27 9 35 9 9 0
8 -4 -5 -9z m-715 -10 c-8 -5 -19 -10 -25 -10 -5 0 -3 5 5 10 8 5 20 10 25 10
6 0 3 -5 -5 -10z m545 -41 c-66 -21 -124 -38 -130 -38 -15 1 217 78 235 78 8
-1 -39 -18 -105 -40z m-595 21 c-8 -5 -19 -10 -25 -10 -5 0 -3 5 5 10 8 5 20
10 25 10 6 0 3 -5 -5 -10z m2123 -7 c-13 -2 -33 -2 -45 0 -13 2 -3 4 22 4 25
0 35 -2 23 -4z m-2173 -13 c-8 -5 -19 -10 -25 -10 -5 0 -3 5 5 10 8 5 20 10
25 10 6 0 3 -5 -5 -10z m-70 -30 c-19 -11 -39 -19 -45 -19 -5 0 6 8 25 19 19
11 40 19 45 19 6 0 -6 -8 -25 -19z m2135 -120 c-15 -61 -29 -109 -31 -107 -3
2 7 51 21 108 14 57 26 113 26 124 1 16 2 16 6 3 2 -9 -8 -67 -22 -128z
m-1565 106 c0 -2 -30 -14 -67 -27 -37 -12 -109 -39 -162 -60 -52 -22 -96 -37
-98 -35 -2 2 53 26 124 54 176 69 203 77 203 68z m-635 -16 c-3 -5 -12 -10
-18 -10 -7 0 -6 4 3 10 19 12 23 12 15 0z m2346 -115 l-11 -40 5 40 c3 22 6
58 7 80 l1 40 4 -40 c2 -22 -1 -58 -6 -80z m-2382 101 c-10 -9 -69 -36 -69
-32 0 7 52 35 64 36 5 0 7 -2 5 -4z m-124 -66 c-3 -5 -12 -10 -18 -10 -7 0 -6
4 3 10 19 12 23 12 15 0z m-55 -30 c-14 -11 -29 -20 -35 -20 -5 0 4 9 20 20
38 25 48 25 15 0z m375 -69 c-158 -76 -314 -168 -425 -249 -74 -55 -240 -214
-294 -282 l-28 -35 29 41 c89 129 261 276 473 404 103 62 355 190 375 189 6 0
-53 -30 -130 -68z m-430 40 c-20 -17 -165 -111 -165 -106 0 2 37 29 82 60 77
51 105 67 83 46z m2599 -75 c-3 -15 -8 -25 -11 -23 -2 3 -1 17 3 31 3 15 8 25
11 23 2 -3 1 -17 -3 -31z m-183 -77 c-12 -39 -24 -69 -26 -67 -2 2 6 36 18 75
11 40 23 71 25 68 2 -2 -6 -36 -17 -76z m163 -3 c-3 -15 -8 -25 -11 -23 -2 3
-1 17 3 31 3 15 8 25 11 23 2 -3 1 -17 -3 -31z m-2876 -66 c-47 -44 -109 -111
-138 -150 -59 -79 -78 -95 -28 -22 33 47 232 252 245 252 4 0 -31 -36 -79 -80z
m2853 -11 c-5 -13 -10 -19 -10 -12 -1 15 10 45 15 40 3 -2 0 -15 -5 -28z
m-202 -98 c-12 -34 -23 -60 -25 -58 -2 2 6 32 17 66 12 34 23 60 25 58 2 -2
-6 -32 -17 -66z m162 -38 c-12 -20 -14 -14 -5 12 4 9 9 14 11 11 3 -2 0 -13
-6 -23z m-200 -60 c-12 -20 -14 -14 -5 12 4 9 9 14 11 11 3 -2 0 -13 -6 -23z
m-2820 -46 c-10 -9 -11 -8 -5 6 3 10 9 15 12 12 3 -3 0 -11 -7 -18z m2800 -4
c-12 -20 -14 -14 -5 12 4 9 9 14 11 11 3 -2 0 -13 -6 -23z m-2820 -36 c-10 -9
-11 -8 -5 6 3 10 9 15 12 12 3 -3 0 -11 -7 -18z m2800 -14 c-12 -20 -14 -14
-5 12 4 9 9 14 11 11 3 -2 0 -13 -6 -23z m180 -10 c-12 -20 -14 -14 -5 12 4 9
9 14 11 11 3 -2 0 -13 -6 -23z m-3000 -20 c-12 -20 -14 -14 -5 12 4 9 9 14 11
11 3 -2 0 -13 -6 -23z m2800 -20 c-12 -20 -14 -14 -5 12 4 9 9 14 11 11 3 -2
0 -13 -6 -23z m180 -10 c-12 -20 -14 -14 -5 12 4 9 9 14 11 11 3 -2 0 -13 -6
-23z m-2997 -27 c-3 -15 -8 -25 -11 -23 -2 3 -1 17 3 31 3 15 8 25 11 23 2 -3
1 -17 -3 -31z m2787 -33 c-11 -21 -20 -35 -21 -31 0 12 33 78 38 74 2 -2 -6
-21 -17 -43z m-2579 -30 c-19 -37 -46 -99 -58 -137 -13 -39 -23 -64 -24 -55
-1 43 95 259 115 259 2 0 -13 -30 -33 -67z m2769 40 c-12 -20 -14 -14 -5 12 4
9 9 14 11 11 3 -2 0 -13 -6 -23z m-3000 -88 c-6 -45 -9 -51 -10 -24 -1 40 10
110 16 94 1 -6 -1 -37 -6 -70z m2980 38 c-12 -20 -14 -14 -5 12 4 9 9 14 11
11 3 -2 0 -13 -6 -23z m-280 -190 c-50 -99 -98 -188 -106 -199 -8 -10 31 72
88 183 56 110 104 200 105 198 2 -2 -37 -84 -87 -182z m262 142 c-3 -9 -8 -14
-10 -11 -3 3 -2 9 2 15 9 16 15 13 8 -4z m-22 -52 c-12 -20 -14 -14 -5 12 4 9
9 14 11 11 3 -2 0 -13 -6 -23z m-18 -38 c-3 -9 -8 -14 -10 -11 -3 3 -2 9 2 15
9 16 15 13 8 -4z m-2920 -75 c3 -39 2 -55 -3 -40 -8 25 -13 117 -6 109 2 -2 6
-33 9 -69z m2898 23 c-12 -20 -14 -14 -5 12 4 9 9 14 11 11 3 -2 0 -13 -6 -23z
m-2754 -65 c-2 -13 -4 -5 -4 17 -1 22 1 32 4 23 2 -10 2 -28 0 -40z m2736 27
c-3 -9 -8 -14 -10 -11 -3 3 -2 9 2 15 9 16 15 13 8 -4z m-2746 -132 c-2 -16
-4 -3 -4 27 0 30 2 43 4 28 2 -16 2 -40 0 -55z m2704 44 c-10 -9 -11 -8 -5 6
3 10 9 15 12 12 3 -3 0 -11 -7 -18z m-2812 -37 c0 -9 -4 -8 -9 5 -5 11 -9 27
-9 35 0 9 4 8 9 -5 5 -11 9 -27 9 -35z m155 -249 c9 -30 14 -56 12 -58 -11
-12 -57 188 -55 241 1 17 7 -5 14 -49 7 -44 20 -104 29 -134z m2369 139 c-15
-28 -36 -60 -47 -73 l-18 -22 14 25 c8 14 27 46 42 73 15 26 30 47 33 47 2 0
-8 -23 -24 -50z m-2483 -15 c0 -5 -5 -3 -10 5 -5 8 -10 20 -10 25 0 6 5 3 10
-5 5 -8 10 -19 10 -25z m2685 -5 c-9 -16 -18 -30 -21 -30 -2 0 2 14 11 30 9
17 18 30 21 30 2 0 -2 -13 -11 -30z m-2665 -45 c0 -5 -5 -3 -10 5 -5 8 -10 20
-10 25 0 6 5 3 10 -5 5 -8 10 -19 10 -25z m2625 -25 c-9 -16 -18 -30 -21 -30
-2 0 2 14 11 30 9 17 18 30 21 30 2 0 -2 -13 -11 -30z m-2607 -15 c-3 -3 -9 2
-12 12 -6 14 -5 15 5 6 7 -7 10 -15 7 -18z m2376 -7 c-21 -36 -85 -128 -89
-128 -3 0 16 32 41 70 26 39 49 70 51 70 2 0 1 -6 -3 -12z m-2356 -33 c-3 -3
-9 2 -12 12 -6 14 -5 15 5 6 7 -7 10 -15 7 -18z m2546 -15 c-10 -16 -20 -28
-22 -26 -4 5 28 56 35 56 2 0 -4 -13 -13 -30z m-2524 -20 c6 -11 8 -20 6 -20
-3 0 -10 9 -16 20 -6 11 -8 20 -6 20 3 0 10 -9 16 -20z m102 -135 c22 -46 24
-54 9 -35 -11 14 -21 31 -21 38 0 7 -4 10 -10 7 -6 -4 -7 1 -3 11 4 11 3 15
-5 11 -6 -4 -20 7 -32 25 l-22 33 27 -30 c26 -29 26 -29 19 -5 -18 64 -19 66
38 -55z m2372 73 c-24 -41 -125 -188 -129 -188 -3 0 25 45 61 100 37 55 69
100 71 100 2 0 1 -6 -3 -12z m-263 -50 c-70 -95 -152 -195 -187 -228 -24 -22
-18 -12 16 25 29 33 85 102 123 153 38 50 72 92 74 92 3 0 -9 -19 -26 -42z
m103 -183 c-14 -19 -29 -35 -31 -35 -5 0 7 18 36 53 26 31 23 18 -5 -18z m-95
-120 c-71 -86 -257 -269 -309 -304 -26 -17 -23 -13 10 15 85 72 222 209 287
287 36 42 67 77 70 77 2 0 -24 -34 -58 -75z m-309 -47 c-92 -87 -225 -190
-293 -228 -59 -33 -45 -21 58 48 79 53 282 224 300 252 3 5 9 10 13 10 4 -1
-31 -37 -78 -82z m-340 -253 c0 -15 -235 -106 -269 -104 -9 0 11 9 44 18 33
10 96 34 140 54 44 19 81 36 83 36 1 1 2 -1 2 -4z m-755 -66 c34 -10 88 -25
120 -33 33 -8 50 -15 39 -15 -17 -1 -109 24 -248 66 -14 5 -17 3 -11 -7 5 -9
4 -11 -4 -6 -6 4 -9 11 -6 16 3 4 -9 13 -25 19 -17 5 -30 12 -30 15 0 3 24 -4
53 -15 28 -12 79 -29 112 -40z m1033 18 c-29 -24 -98 -66 -86 -52 10 11 102
74 108 74 3 0 -7 -10 -22 -22z m-1028 -73 c0 -2 -13 2 -30 11 -16 9 -30 18
-30 21 0 2 14 -2 30 -11 17 -9 30 -18 30 -21z m435 6 c-16 -4 -82 -7 -145 -7
l-115 1 120 6 c180 9 175 9 140 0z m461 -15 c-11 -8 -25 -15 -30 -15 -6 1 0 7
14 15 32 19 40 18 16 0z m-861 -5 c3 -6 -1 -7 -9 -4 -18 7 -21 14 -7 14 6 0
13 -4 16 -10z m105 -40 c18 -12 2 -12 -25 0 -13 6 -15 9 -5 9 8 0 22 -4 30 -9z
m660 0 c-8 -5 -19 -10 -25 -10 -5 0 -3 5 5 10 8 5 20 10 25 10 6 0 3 -5 -5
-10z m-50 -20 c-8 -5 -22 -9 -30 -9 -10 0 -8 3 5 9 27 12 43 12 25 0z m-465
-20 c25 -11 -1 -11 -35 0 -20 6 -21 8 -5 8 11 0 29 -3 40 -8z m400 0 c-11 -5
-27 -9 -35 -9 -9 0 -8 4 5 9 11 5 27 9 35 9 9 0 8 -4 -5 -9z m-111 -22 c-50
-9 -168 -9 -218 0 -23 4 23 7 109 7 86 0 132 -3 109 -7z"/>
<path d="M2587 10203 c-635 -789 -1032 -1766 -1108 -2728 -15 -185 -7 -578 15
-760 90 -744 358 -1417 846 -2127 808 -1175 1390 -2228 1713 -3098 196 -528
316 -1036 330 -1394 3 -86 17 -122 31 -78 12 36 25 219 26 343 1 855 -379
2002 -1028 3094 -192 323 -429 671 -772 1131 -217 289 -315 434 -428 628 -299
511 -489 1066 -557 1626 -35 281 -31 719 10 1023 94 715 372 1444 801 2099 56
86 132 196 168 244 36 48 66 91 66 95 0 30 -31 4 -113 -98z"/>
<path d="M4457 8398 c-306 -353 -638 -890 -839 -1357 -263 -612 -388 -1198
-388 -1817 0 -462 69 -881 220 -1334 95 -286 180 -474 400 -890 319 -600 558
-1316 650 -1944 40 -275 45 -348 45 -697 l0 -346 41 61 c154 229 349 628 472
966 199 545 295 1082 295 1645 0 540 -85 1019 -270 1525 -70 191 -131 326
-304 671 -273 546 -408 889 -514 1310 -91 363 -120 590 -119 934 0 217 4 284
23 404 52 342 164 652 312 874 22 31 37 57 35 57 -2 0 -29 -28 -59 -62z"/>
<path d="M1213 5788 c-271 -553 -311 -1242 -113 -1943 337 -1193 1355 -2453
2973 -3679 115 -87 210 -156 213 -153 15 14 -55 454 -106 672 -265 1125 -803
1994 -1585 2561 -38 28 -146 100 -240 159 -320 204 -477 326 -680 529 -268
269 -433 531 -514 819 -49 171 -56 229 -56 432 0 161 4 206 24 294 27 123 77
274 115 349 15 30 26 56 23 58 -2 2 -26 -42 -54 -98z"/>
</g>
</svg>
