<?xml version="1.0" standalone="no"?>
<!DOCTYPE svg PUBLIC "-//W3C//DTD SVG 20010904//EN"
 "http://www.w3.org/TR/2001/REC-SVG-20010904/DTD/svg10.dtd">
<svg version="1.0" xmlns="http://www.w3.org/2000/svg"
 width="1280.000000pt" height="880.000000pt" viewBox="0 0 1280.000000 880.000000"
 preserveAspectRatio="xMidYMid meet">
<g transform="translate(0.000000,880.000000) scale(0.100000,-0.100000)"
fill="#000000" stroke="none">
<path d="M4520 8794 c-14 -2 -59 -9 -100 -15 -99 -15 -246 -62 -345 -112 -382
-191 -659 -559 -852 -1132 -111 -331 -228 -923 -258 -1305 -6 -75 -7 -76 -90
-195 -133 -190 -237 -371 -375 -650 -292 -591 -425 -1003 -502 -1550 -30 -217
-32 -674 -5 -895 23 -183 68 -406 113 -563 19 -67 40 -147 45 -177 32 -174
110 -444 205 -713 35 -98 64 -183 64 -188 0 -5 -24 -9 -52 -9 -119 0 -594 -60
-875 -111 -664 -119 -1121 -261 -1373 -427 -65 -42 -123 -92 -108 -92 2 0 105
11 229 25 491 53 827 74 1339 82 350 5 832 -6 1008 -24 l63 -6 31 -61 c39 -78
163 -295 291 -509 67 -112 103 -164 111 -159 6 5 84 64 173 131 89 66 224 168
299 226 75 58 138 104 140 102 2 -1 11 -62 20 -135 10 -73 21 -132 25 -132 18
0 123 130 149 185 16 33 38 65 48 72 11 6 24 32 31 57 7 31 17 46 27 46 28 0
378 -81 387 -89 4 -4 10 -44 14 -88 6 -90 7 -92 42 -116 17 -11 39 -53 71
-134 25 -65 50 -118 55 -117 18 2 105 183 105 218 0 18 7 48 16 66 13 25 15
49 11 104 l-5 72 125 21 126 20 16 -39 c9 -21 19 -38 22 -38 3 0 18 22 32 49
l27 48 122 17 c68 9 151 16 184 16 55 0 62 -2 68 -22 l6 -23 19 22 c17 20 22
21 97 12 43 -6 144 -9 223 -7 l145 3 39 -102 c22 -57 43 -100 48 -98 14 9 70
118 93 179 l21 59 90 23 c293 74 542 189 1285 593 452 246 519 275 658 287
l79 7 -5 -52 c-10 -110 41 -319 111 -454 65 -127 182 -233 352 -320 72 -37
176 -80 180 -75 1 2 12 29 23 60 38 102 54 191 59 323 8 188 -18 276 -130 449
l-55 83 172 6 c94 4 221 7 283 7 l112 0 -27 -47 c-69 -124 -21 -423 93 -572
61 -79 170 -162 278 -211 113 -50 102 -55 139 62 30 95 33 113 33 238 0 124
-2 140 -26 198 -45 106 -91 174 -174 258 l-80 82 205 6 c113 3 279 9 369 13
l164 6 -9 -29 c-18 -57 -9 -214 16 -284 50 -143 100 -217 188 -282 67 -50 207
-117 253 -120 33 -3 33 -3 51 62 24 87 33 221 19 295 -21 116 -121 275 -219
350 -28 21 -49 42 -47 46 3 4 21 10 41 13 36 7 327 95 377 115 38 15 37 15 31
-18 -14 -68 37 -197 120 -308 89 -118 188 -189 316 -227 76 -23 224 -38 288
-30 l52 6 0 52 c0 113 -63 298 -134 395 -60 82 -224 194 -329 226 -35 11 -39
14 -22 21 16 6 485 192 534 212 11 4 11 1 2 -16 -6 -11 -11 -44 -11 -72 0 -83
46 -167 149 -271 121 -122 208 -162 376 -175 72 -5 199 7 213 21 11 11 -40
184 -78 263 -67 140 -176 228 -357 288 l-94 31 43 19 c25 11 82 57 134 109
139 137 175 225 175 426 0 63 -5 127 -10 141 l-10 26 -63 -13 c-249 -53 -382
-160 -476 -387 -22 -53 -26 -78 -26 -158 0 -52 3 -105 8 -118 8 -20 5 -22 -22
-22 -75 0 -374 -89 -557 -165 -49 -21 -137 -55 -195 -75 l-106 -38 61 62 c83
85 145 216 164 345 l6 44 76 -2 c42 -1 88 1 104 5 l28 7 -6 71 c-8 89 -39 202
-79 286 -76 159 -306 317 -490 336 l-67 7 60 38 c127 83 413 309 472 374 18
20 18 20 6 -5 -30 -59 2 -142 81 -213 140 -126 345 -184 510 -143 123 31 265
99 255 123 -25 67 -147 207 -228 262 -126 86 -358 115 -499 61 l-48 -18 129
136 c70 76 174 189 231 252 56 63 113 126 125 139 l23 23 38 -42 c44 -49 82
-69 184 -101 63 -20 97 -24 210 -24 124 0 140 2 198 26 105 45 173 90 262 177
l85 84 -35 29 c-166 141 -332 207 -491 196 -82 -6 -254 -48 -273 -68 -11 -10
-49 -12 -59 -2 -4 3 -1 13 7 22 23 26 83 152 100 213 22 78 21 197 -4 286 -18
63 -67 175 -98 221 -22 32 -236 -149 -295 -250 -41 -69 -67 -186 -67 -297 0
-131 21 -202 77 -261 l44 -45 -78 -116 c-311 -461 -701 -807 -1136 -1004 l-77
-36 41 55 c82 108 137 305 126 450 -6 86 -50 203 -109 296 -47 73 -102 139
-116 139 -18 0 -143 -134 -187 -200 -78 -117 -105 -205 -105 -333 1 -207 75
-384 179 -430 l46 -20 -35 -15 c-126 -52 -415 -122 -705 -172 -66 -11 -133
-22 -150 -25 -28 -5 -28 -4 23 46 68 66 104 120 154 225 62 132 91 259 84 369
-8 148 -63 311 -149 447 l-42 68 -69 -46 c-89 -60 -228 -193 -278 -268 -83
-121 -119 -256 -119 -446 -1 -191 38 -311 127 -389 26 -22 42 -41 36 -41 -6 0
-71 -9 -144 -19 -73 -11 -257 -36 -408 -56 -151 -20 -293 -38 -315 -42 l-40
-6 26 29 c58 63 113 168 149 287 15 47 15 181 0 238 -15 62 -59 166 -93 221
l-28 47 -52 -32 c-76 -46 -197 -172 -235 -243 -45 -86 -66 -195 -59 -314 6
-112 25 -173 72 -227 l34 -40 -102 -27 c-365 -95 -628 -260 -1046 -659 -347
-330 -557 -446 -886 -486 -170 -21 -180 -19 -281 50 -123 84 -142 103 -181
189 -19 41 -49 91 -68 111 -104 115 -39 354 183 666 447 631 777 1285 936
1858 105 376 142 656 133 1003 -7 277 -40 473 -114 691 -31 92 -103 249 -133
291 -20 28 -22 42 -21 198 4 469 -107 971 -299 1357 -102 205 -185 321 -335
470 -271 271 -580 413 -994 455 -97 9 -296 12 -351 4z m6064 -5859 c-39 -94
15 -250 132 -383 l41 -47 -23 -35 c-45 -68 -66 -147 -71 -276 -4 -95 -2 -132
11 -178 21 -70 51 -119 88 -141 38 -22 35 -32 -14 -46 -122 -32 -434 -79 -531
-79 l-39 0 31 26 c76 64 127 244 118 420 -5 110 -26 177 -88 281 -36 59 -154
187 -202 218 -28 18 -28 18 -55 -13 l-27 -32 -59 37 -58 37 158 32 c88 17 193
42 234 54 84 25 277 106 330 138 19 12 36 22 37 22 1 0 -5 -16 -13 -35z
m-1030 -303 c-14 -128 54 -280 184 -410 45 -46 82 -90 82 -99 0 -34 62 -197
93 -246 19 -29 56 -72 82 -95 26 -23 44 -42 39 -42 -5 0 -85 5 -179 10 -269
16 -476 47 -1040 155 -154 30 -334 63 -399 75 -120 20 -329 41 -376 37 -21 -2
-28 6 -47 53 -91 222 79 357 597 474 l26 5 -4 -62 c-7 -113 66 -256 195 -382
77 -74 158 -121 258 -147 77 -21 256 -35 300 -24 l27 7 -7 67 c-11 99 -40 205
-81 291 -48 99 -137 187 -259 256 -58 33 -83 51 -71 53 10 2 145 21 299 42
155 21 283 38 284 39 2 0 0 -25 -3 -57z m1266 -776 c0 -3 -4 -8 -10 -11 -5 -3
-10 -1 -10 4 0 6 5 11 10 11 6 0 10 -2 10 -4z"/>
<path d="M10967 4468 c-78 -98 -136 -208 -161 -304 -60 -234 69 -580 233 -624
23 -6 42 -18 44 -28 3 -12 5 -11 6 6 1 14 7 22 19 22 36 0 97 56 130 117 50
95 66 170 66 318 0 147 -14 197 -81 308 -41 67 -188 227 -209 227 -7 0 -28
-19 -47 -42z"/>
</g>
</svg>
