<?xml version="1.0" standalone="no"?>
<!DOCTYPE svg PUBLIC "-//W3C//DTD SVG 20010904//EN"
 "http://www.w3.org/TR/2001/REC-SVG-20010904/DTD/svg10.dtd">
<svg version="1.0" xmlns="http://www.w3.org/2000/svg"
 width="1280.000000pt" height="640.000000pt" viewBox="0 0 1280.000000 640.000000"
 preserveAspectRatio="xMidYMid meet">
<g transform="translate(0.000000,640.000000) scale(0.100000,-0.100000)"
fill="#8bc34a" stroke="none">
<path d="M8235 5720 c-4 -6 -145 -10 -411 -10 -404 0 -405 0 -435 -22 l-31
-23 -506 -3 c-322 -2 -511 -7 -518 -13 -7 -6 -120 -13 -268 -16 -228 -5 -256
-8 -252 -22 3 -9 8 -34 12 -56 4 -22 13 -51 21 -65 27 -46 3 -99 -72 -166 -36
-31 -65 -65 -65 -74 0 -10 21 -34 48 -53 26 -20 61 -49 77 -67 l30 -31 3 -304
4 -303 -22 -12 c-28 -15 -121 -5 -170 17 -27 13 -78 18 -217 21 -172 4 -183 4
-190 -14 -3 -11 -11 -22 -17 -26 -6 -4 -239 -8 -518 -8 -327 0 -509 -4 -513
-10 -4 -7 -390 -10 -1126 -10 l-1120 0 -29 21 c-24 18 -47 23 -129 27 -62 3
-101 9 -101 15 0 27 -18 -12 -24 -50 l-6 -43 52 0 c35 -1 75 -10 118 -29 l65
-28 -2 -39 c-2 -21 -6 -79 -10 -129 l-8 -90 -35 -5 c-19 -3 -62 0 -95 7 -33 7
-77 13 -98 13 -38 0 -77 27 -77 54 0 8 7 51 16 96 8 45 13 87 11 93 -6 20 -45
-79 -52 -136 -4 -31 -11 -57 -15 -57 -5 0 -29 9 -53 19 -25 11 -48 17 -51 14
-3 -3 -9 -28 -12 -54 -10 -77 -16 -80 -103 -63 -73 14 -75 14 -98 -8 -13 -12
-28 -38 -33 -57 -14 -51 -33 -478 -26 -587 6 -85 5 -92 -16 -111 -13 -11 -39
-26 -58 -33 -19 -7 -75 -33 -124 -57 -74 -37 -105 -61 -188 -144 -80 -80 -106
-113 -135 -175 -38 -80 -36 -93 12 -94 20 0 109 32 155 55 14 7 42 16 62 20
40 8 37 12 62 -94 8 -37 -25 -102 -88 -169 -57 -63 -166 -223 -166 -245 0 -7
-12 -29 -26 -48 -15 -19 -39 -61 -54 -94 -16 -33 -39 -70 -52 -82 -34 -31
-188 -75 -283 -80 -44 -3 -84 -9 -89 -14 -6 -5 -33 -9 -60 -10 -91 -2 -99 -7
-115 -74 -7 -33 -15 -109 -18 -170 l-4 -110 96 -23 c52 -13 100 -20 105 -17 6
3 15 26 21 50 18 69 29 75 183 87 75 6 139 8 143 5 3 -4 9 -46 14 -94 4 -49
12 -110 19 -138 16 -65 89 -235 101 -235 6 0 34 -51 63 -113 51 -108 57 -116
172 -228 65 -64 139 -128 162 -143 82 -52 309 -135 401 -147 128 -17 414 -6
521 21 170 42 520 218 587 295 21 25 74 85 118 133 66 72 94 115 161 244 45
85 85 165 89 177 6 21 11 21 209 21 l202 0 34 35 34 35 387 0 387 0 105 -35
c57 -19 124 -35 148 -35 24 0 66 -7 92 -15 27 -8 99 -19 160 -25 257 -24 326
-32 395 -47 62 -13 93 -13 205 -4 148 13 1378 -2 1547 -18 159 -15 365 -13
407 4 52 22 1437 22 1558 0 103 -19 179 -19 194 -1 17 20 96 39 134 32 46 -9
63 -30 142 -181 66 -124 75 -135 195 -253 145 -142 232 -204 350 -251 47 -19
108 -46 135 -61 30 -17 74 -30 109 -34 32 -4 79 -15 105 -26 25 -11 66 -24 91
-30 52 -11 203 -13 214 -3 4 4 58 15 119 24 155 22 244 51 303 97 27 22 74 52
104 68 70 36 292 257 339 336 18 32 44 85 58 120 27 66 67 135 91 155 7 6 37
14 65 18 29 4 57 11 62 15 19 14 68 21 225 30 87 6 182 15 212 21 65 13 150
39 161 49 5 4 -2 37 -13 74 -12 37 -19 73 -16 81 4 12 24 15 87 15 78 0 86 -2
168 -46 108 -59 128 -77 136 -125 8 -45 21 -58 69 -66 26 -4 42 -1 54 11 10 8
33 21 50 27 l32 11 0 112 c0 81 -4 118 -14 132 -14 18 -15 18 -20 -6 -3 -14
-7 -38 -8 -55 -3 -29 -5 -30 -65 -37 -34 -4 -77 -11 -95 -16 -26 -7 -42 -6
-62 5 -26 14 -27 16 -24 91 l3 77 80 3 c144 5 139 24 -11 42 -139 16 -207 13
-235 -9 -54 -42 -86 -51 -177 -51 l-90 0 -36 53 c-20 29 -36 61 -36 73 0 56
124 209 243 300 l59 44 110 0 109 0 -3 28 c-5 43 -92 67 -357 95 -181 19 -223
27 -234 41 -8 10 -34 20 -68 25 -30 4 -60 10 -67 15 -14 8 -17 282 -4 303 4 6
20 17 36 22 l28 11 -26 31 c-37 44 -34 78 12 121 49 47 71 57 140 66 l57 7 -4
60 c-2 33 -5 63 -8 68 -7 12 -131 8 -139 -4 -4 -7 -10 -37 -13 -68 l-6 -56
-60 -5 -60 -5 3 -85 c7 -251 9 -228 -34 -314 -39 -78 -82 -136 -102 -136 -6 0
-27 35 -48 77 -37 77 -37 77 -25 143 7 36 37 123 68 195 30 71 64 168 75 215
11 47 31 121 44 165 46 159 64 252 75 400 5 82 18 184 27 225 11 48 16 106 14
163 -8 224 -5 532 6 629 9 81 10 117 1 150 -6 24 -14 70 -16 103 -3 33 -9 64
-14 69 -5 6 -9 38 -9 72 0 42 -5 65 -15 74 -8 7 -15 19 -15 26 0 8 -9 23 -19
33 -11 11 -26 30 -33 43 -20 37 -127 130 -188 165 -70 40 -181 77 -290 97
-136 25 -473 56 -610 56 -106 0 -135 4 -185 23 l-60 22 -1082 3 c-731 2 -1084
-1 -1088 -8z m-318 -548 c17 -10 21 -26 26 -118 4 -59 7 -194 7 -301 0 -187 1
-195 25 -243 30 -59 33 -137 7 -189 -30 -60 -25 -60 -998 -61 l-870 0 -27 28
-27 28 2 420 3 419 270 8 c896 25 1544 29 1582 9z m2078 -16 c14 -21 16 -72
13 -402 -3 -415 -6 -439 -58 -439 -22 0 -26 5 -31 47 -4 25 -13 59 -21 75 -12
25 -19 28 -65 31 -39 2 -63 -3 -100 -21 -68 -35 -85 -57 -87 -114 l-1 -48
-485 -2 c-345 -2 -491 -6 -507 -14 -29 -15 -222 -5 -260 13 -16 7 -36 29 -45
48 -16 31 -18 73 -18 403 l0 368 26 24 c31 29 35 29 101 14 41 -10 54 -9 81 5
24 12 61 16 161 16 76 0 132 4 136 10 4 6 207 10 575 10 l570 0 15 -24z m953
0 c64 -21 119 -72 128 -122 10 -55 -3 -574 -15 -615 -7 -22 -33 -57 -65 -88
l-55 -51 -269 0 c-309 0 -296 -4 -330 91 -19 51 -20 81 -21 408 -1 193 2 363
5 377 l7 26 281 -4 c229 -4 291 -8 334 -22z"/>
<path d="M6200 4759 c0 -15 20 -50 46 -82 17 -20 24 -41 24 -70 0 -59 12 -72
62 -73 24 0 58 -4 77 -9 31 -7 32 -6 23 11 -6 10 -54 67 -107 127 -87 97 -125
126 -125 96z"/>
<path d="M6450 4445 c0 -4 7 -19 15 -35 8 -15 14 -46 12 -67 -2 -36 -1 -38 28
-38 25 0 30 4 33 28 4 33 14 34 54 6 l30 -22 -15 30 c-25 48 -93 103 -127 103
-17 0 -30 -2 -30 -5z"/>
</g>
</svg>
